# xmcd CD database file
#
# Track frame offsets:
#	182
#	31060
#	47387
#	72412
#	92075
#	111872
#	132327
#	157132
#	167292
#	188650
#	200200
#
# Disc length: 2950 seconds
#
# Revision: 2
# Processed by: cddbd v1.5PL3 Copyright (c) Steve Scherf et al.
# Submitted via: CDex 1.51
#
DISCID=910b840b
DTITLE=Big Bad Smitty - Mean Disposition
DYEAR=1991
DGENRE=Blues
TTITLE0=How Many More Years?
TTITLE1=Long Ol' Lonesome Day
TTITLE2=Same Sweet Feelin' for You
TTITLE3=You Don't Love Me, Baby?
TTITLE4=Still a Fool
TTITLE5=You Don't Love Nobody
TTITLE6=Walk the Back Streets Cryin'
TTITLE7=I Didn't Marry Your Family
TTITLE8=Angel of Mercy
TTITLE9=Feel like Love
TTITLE10=Loney Man
EXTD=YEAR: 1991
EXTT0=
EXTT1=
EXTT2=
EXTT3=
EXTT4=
EXTT5=
EXTT6=
EXTT7=
EXTT8=
EXTT9=
EXTT10=
PLAYORDER=
